<?xml version="1.0" encoding="UTF-8" standalone="no"?>
<!-- Uploaded to: SVG Repo, www.svgrepo.com, Generator: SVG Repo Mixer Tools -->

<svg
   width="800"
   height="800"
   viewBox="-10 -5 1034 1034"
   version="1.1"
   id="svg1"
   xmlns="http://www.w3.org/2000/svg"
   xmlns:svg="http://www.w3.org/2000/svg">
  <defs
     id="defs1" />
  <path
     fill="#000000"
     d="m 549.27642,72.148521 q -33.11759,0 -56.92086,22.768343 -23.80327,22.768346 -25.87312,56.920856 -2.06985,34.15252 21.21595,60.02564 23.28581,25.87312 57.95579,27.94297 34.66998,2.06985 60.5431,-21.21596 25.87312,-23.28581 27.94297,-57.95578 Q 636.2101,125.96461 612.92429,99.574025 589.63848,73.183446 554.45104,72.148521 Z M 459.23796,170.46637 219.13542,292.58749 q 20.6985,20.6985 25.87312,49.67639 L 484.07616,220.14276 q -19.66357,-20.6985 -24.8382,-49.67639 z m 172.83244,27.94297 q -13.45402,25.87312 -39.32714,39.32714 l 189.39123,190.42615 q 13.45402,-25.87312 40.36206,-39.32714 z M 485.11108,221.17768 345.39624,495.43274 386.79323,536.82973 534.78747,247.0508 q -28.97789,-5.17462 -49.67639,-25.87312 z m 107.63218,16.5588 q -22.76835,11.38417 -47.60654,10.34925 l -8.2794,-1.03493 21.73342,136.61007 57.95579,9.31432 z m -440.87795,35.18744 q -33.11759,0 -56.920855,23.28581 -23.803273,23.2858 -25.873123,56.92086 -2.06985,33.63505 21.215963,60.02563 23.285805,26.39059 58.473245,27.94297 35.18744,1.55239 61.06056,-21.73342 25.87312,-23.2858 27.4255,-57.95578 1.55239,-34.66998 -21.73342,-60.5431 -23.2858,-25.87312 -57.43832,-27.94297 z m 93.14323,70.37488 q 1.03492,9.31433 1.03492,18.62865 -1.03492,19.66357 -10.34924,36.22237 l 136.61006,21.73342 26.90805,-51.74624 z m 232.85807,37.2573 -26.90804,52.78116 321.86159,50.71131 q -1.03492,-8.2794 -1.03492,-17.59372 1.03492,-19.66357 10.34925,-37.25729 z m 384.99201,6.20954 q -33.1176,1.03493 -56.92086,23.80327 -23.80327,22.76835 -25.35566,56.92086 -1.55239,34.15252 21.73342,60.02564 23.28581,25.87312 57.95579,27.94297 34.66997,2.06985 60.54309,-21.21596 25.87312,-23.28581 27.94297,-58.47325 2.06985,-35.18744 -21.21596,-61.06056 -23.2858,-25.87312 -58.47324,-27.94297 z m -627.1644,13.45403 q -13.45402,25.87311 -40.36207,39.32714 l 217.3342,217.33419 52.78116,-25.87311 z m -41.39699,39.32714 q -21.73342,11.38417 -45.53669,10.34924 l -9.31432,-1.03492 41.39699,264.94074 q 21.73342,-10.34925 46.57161,-9.31433 l 8.2794,1.03493 z m 376.71261,22.76834 49.67638,321.8616 q 21.73342,-10.34925 45.53669,-9.31432 l 10.34925,1.03492 -47.60654,-304.26788 z m 201.81032,23.80327 -122.12112,62.09548 8.2794,57.95579 139.71484,-70.37488 q -20.69849,-20.6985 -25.87312,-49.67639 z m 26.90805,50.71131 -123.15605,239.06762 q 28.97789,5.17462 49.67639,25.87312 L 849.4046,562.70285 q -28.9779,-5.17462 -49.67639,-25.87312 z m -491.58926,30.01282 -70.37488,138.67992 q 28.97789,5.17462 49.67638,25.87312 l 62.09549,-123.15605 z m 271.15028,17.59372 -290.81385,147.99424 q 19.66357,20.6985 24.83819,49.67639 L 587.56863,642.39206 Z m -56.92086,103.49248 -52.78116,25.87312 109.70202,110.73694 q 13.45403,-25.87312 40.36207,-39.32714 z m -301.1631,24.83819 q -33.11759,0 -57.43832,23.28581 -24.32073,23.2858 -25.87312,56.92086 -1.55239,33.63505 21.73342,59.50817 23.2858,25.87312 57.95578,27.94297 34.66998,2.06985 60.5431,-21.21596 25.87312,-23.2858 27.94297,-57.95578 2.06985,-34.66998 -21.21596,-60.5431 -23.2858,-25.87312 -58.47325,-27.94297 z m 92.1083,70.37488 q 2.06985,9.31433 1.03493,18.62865 -1.03493,19.66357 -9.31432,36.22237 l 264.94073,42.43191 q -1.03492,-9.31432 -1.03492,-18.62865 1.03492,-18.62864 10.34924,-36.22236 z m 346.6998,0 q -33.1176,0 -56.92087,23.28581 -23.80327,23.28581 -25.35565,56.92086 -1.55239,33.63506 21.21596,60.02564 22.76834,26.39058 57.95578,27.94297 35.18744,1.55238 61.06056,-21.73342 25.87312,-23.28581 27.94297,-57.95579 2.06985,-34.66998 -21.21596,-60.5431 -23.2858,-25.87312 -58.47325,-27.94297 z"
     id="path1"
     style="fill:#e8ecfd;fill-opacity:1;stroke-width:1.03492" />
</svg>
