<?xml version="1.0" encoding="UTF-8" standalone="no"?>
<!-- Uploaded to: SVG Repo, www.svgrepo.com, Generator: SVG Repo Mixer Tools -->

<svg
   width="800"
   height="800"
   viewBox="0 0 24 24"
   fill="none"
   version="1.1"
   id="svg1"
   xmlns="http://www.w3.org/2000/svg"
   xmlns:svg="http://www.w3.org/2000/svg">
  <defs
     id="defs1" />
  <path
     d="m 2,7 8.1649,5.7154 c 0.6612,0.4629 0.9918,0.6943 1.3514,0.7839 0.3176,0.0792 0.6498,0.0792 0.9674,0 0.3596,-0.0896 0.6902,-0.321 1.3514,-0.7839 L 22,7 M 6.8,20 h 10.4 c 1.6802,0 2.5202,0 3.162,-0.327 0.5645,-0.2876 1.0234,-0.7465 1.311,-1.311 C 22,17.7202 22,16.8802 22,15.2 V 8.8 C 22,7.11984 22,6.27976 21.673,5.63803 21.3854,5.07354 20.9265,4.6146 20.362,4.32698 19.7202,4 18.8802,4 17.2,4 H 6.8 C 5.11984,4 4.27976,4 3.63803,4.32698 3.07354,4.6146 2.6146,5.07354 2.32698,5.63803 2,6.27976 2,7.11984 2,8.8 v 6.4 c 0,1.6802 0,2.5202 0.32698,3.162 0.28762,0.5645 0.74656,1.0234 1.31105,1.311 C 4.27976,20 5.11984,20 6.8,20 Z"
     stroke="#000000"
     stroke-width="2"
     stroke-linecap="round"
     stroke-linejoin="round"
     id="path1"
     style="stroke:#e7ecfd;stroke-opacity:1" />
</svg>
