<?xml version="1.0" encoding="UTF-8" standalone="no"?>
<!-- Uploaded to: SVG Repo, www.svgrepo.com, Generator: SVG Repo Mixer Tools -->

<svg
   width="800"
   height="800"
   viewBox="0 0 16 16"
   fill="none"
   version="1.1"
   id="svg1"
   xmlns="http://www.w3.org/2000/svg"
   xmlns:svg="http://www.w3.org/2000/svg">
  <defs
     id="defs1" />
  <path
     fill-rule="evenodd"
     clip-rule="evenodd"
     d="M 3.37892,10.2236 8,16 12.6211,10.2236 C 13.5137,9.10788 14,7.72154 14,6.29266 V 6 C 14,2.68629 11.3137,0 8,0 4.68629,0 2,2.68629 2,6 V 6.29266 C 2,7.72154 2.4863,9.10788 3.37892,10.2236 Z M 8,8 C 9.10457,8 10,7.10457 10,6 10,4.89543 9.10457,4 8,4 6.89543,4 6,4.89543 6,6 6,7.10457 6.89543,8 8,8 Z"
     fill="#000000"
     id="path1"
     style="fill:#e7ecfd;fill-opacity:1" />
</svg>
