<?xml version="1.0" encoding="UTF-8" standalone="no"?>
<svg
   width="568"
   height="501"
   viewBox="0 0 568 501"
   fill="none"
   version="1.1"
   id="svg1"
   xmlns="http://www.w3.org/2000/svg"
   xmlns:svg="http://www.w3.org/2000/svg">
  <defs
     id="defs1" />
  <path
     d="M 123.121,33.6637 C 188.241,82.5526 258.281,181.681 284,234.873 309.719,181.681 379.759,82.5526 444.879,33.6637 491.866,-1.61183 568,-28.9064 568,57.9464 c 0,17.3452 -9.945,145.7126 -15.778,166.5546 -20.275,72.453 -94.155,90.933 -159.875,79.748 114.875,19.551 144.097,84.311 80.986,149.071 -119.86,122.992 -172.272,-30.859 -185.702,-70.281 -2.462,-7.227 -3.614,-10.608 -3.631,-7.733 -0.017,-2.875 -1.169,0.506 -3.631,7.733 C 266.939,422.461 214.527,576.312 94.6667,453.32 31.5556,388.56 60.7778,323.8 175.653,304.249 109.933,315.434 36.0535,296.954 15.7778,224.501 9.94525,203.659 0,75.2916 0,57.9464 0,-28.9064 76.1345,-1.61183 123.121,33.6637 Z"
     fill="black"
     id="path1"
     style="fill:#e7ecfd;fill-opacity:1" />
</svg>
