<?xml version="1.0" encoding="UTF-8" standalone="no"?>
<svg
   width="96"
   height="96"
   version="1.1"
   id="svg1"
   sodipodi:docname="github-logo-light.svg"
   inkscape:version="1.4.2 (ebf0e940, 2025-05-08)"
   inkscape:export-filename="github-logo-light.svg"
   inkscape:export-xdpi="32"
   inkscape:export-ydpi="32"
   xmlns:inkscape="http://www.inkscape.org/namespaces/inkscape"
   xmlns:sodipodi="http://sodipodi.sourceforge.net/DTD/sodipodi-0.dtd"
   xmlns="http://www.w3.org/2000/svg"
   xmlns:svg="http://www.w3.org/2000/svg">
  <sodipodi:namedview
     id="namedview1"
     pagecolor="#ffffff"
     bordercolor="#000000"
     borderopacity="0.25"
     inkscape:showpageshadow="2"
     inkscape:pageopacity="0.0"
     inkscape:pagecheckerboard="0"
     inkscape:deskcolor="#d1d1d1"
     inkscape:zoom="6.1756111"
     inkscape:cx="49.792643"
     inkscape:cy="49.630716"
     inkscape:window-width="1456"
     inkscape:window-height="916"
     inkscape:window-x="60"
     inkscape:window-y="38"
     inkscape:window-maximized="0"
     inkscape:current-layer="svg1" />
  <defs
     id="defs1" />
  <path
     fill-rule="evenodd"
     clip-rule="evenodd"
     d="m 48.046167,0.32385459 c -26.386171,0 -47.71682439,21.48790541 -47.71682439,48.07137441 0,21.249586 13.66728539,39.236916 32.62743139,45.603197 2.370506,0.478594 3.238813,-1.034349 3.238813,-2.30702 0,-1.114441 -0.07814,-4.934404 -0.07814,-8.91455 -13.273663,2.865705 -16.037789,-5.730434 -16.037789,-5.730434 -2.133163,-5.571228 -5.293838,-7.003104 -5.293838,-7.003104 -4.344464,-2.94482 0.316458,-2.94482 0.316458,-2.94482 4.819151,0.318412 7.347887,4.934405 7.347887,4.934405 4.265349,7.321516 11.138549,5.252816 13.903652,3.97917 0.394596,-3.104027 1.659452,-5.252817 3.002446,-6.446373 -10.5867,-1.11444 -21.725249,-5.252816 -21.725249,-23.717764 0,-5.252816 1.894842,-9.550397 4.897288,-12.892743 -0.473711,-1.193555 -2.133162,-6.128937 0.474688,-12.734514 0,0 4.028982,-1.273647 13.113483,4.934404 a 45.876679,45.876679 0 0 1 11.929694,-1.592058 c 4.028982,0 8.136103,0.557708 11.928718,1.592058 9.085478,-6.208051 13.114459,-4.934404 13.114459,-4.934404 2.607851,6.605577 0.947422,11.540959 0.473711,12.734514 3.081562,3.342346 4.898266,7.639927 4.898266,12.892743 0,18.464948 -11.138549,22.523232 -21.804363,23.717764 1.738566,1.511967 3.238813,4.376696 3.238813,8.913574 0,6.446372 -0.07814,11.620074 -0.07814,13.211156 0,1.273647 0.869284,2.78659 3.238814,2.308973 C 82.016593,87.631169 95.683878,69.644815 95.683878,48.395229 95.762016,21.81176 74.353224,0.32385459 48.046167,0.32385459 Z"
     fill="#24292f"
     id="path1"
     style="fill:#e7ecfd;fill-opacity:1;stroke-width:0.976723" />
</svg>
