<?xml version="1.0" encoding="UTF-8" standalone="no"?>
<!-- Uploaded to: SVG Repo, www.svgrepo.com, Generator: SVG Repo Mixer Tools -->

<svg
   fill="#000000"
   width="1075"
   height="800"
   viewBox="0 0 32.25 24"
   role="img"
   version="1.1"
   id="svg1"
   sodipodi:docname="ko-fi-logo-light.svg"
   inkscape:version="1.4.2 (ebf0e940, 2025-05-08)"
   xmlns:inkscape="http://www.inkscape.org/namespaces/inkscape"
   xmlns:sodipodi="http://sodipodi.sourceforge.net/DTD/sodipodi-0.dtd"
   xmlns="http://www.w3.org/2000/svg"
   xmlns:svg="http://www.w3.org/2000/svg"
   xmlns:rdf="http://www.w3.org/1999/02/22-rdf-syntax-ns#"
   xmlns:cc="http://creativecommons.org/ns#"
   xmlns:dc="http://purl.org/dc/elements/1.1/">
  <sodipodi:namedview
     id="namedview1"
     pagecolor="#ffffff"
     bordercolor="#000000"
     borderopacity="0.25"
     inkscape:showpageshadow="2"
     inkscape:pageopacity="0.0"
     inkscape:pagecheckerboard="0"
     inkscape:deskcolor="#d1d1d1"
     inkscape:zoom="0.38277816"
     inkscape:cx="352.6847"
     inkscape:cy="316.10999"
     inkscape:window-width="1448"
     inkscape:window-height="869"
     inkscape:window-x="60"
     inkscape:window-y="38"
     inkscape:window-maximized="0"
     inkscape:current-layer="svg1" />
  <defs
     id="defs1" />
  <title
     id="title1">Ko-fi icon</title>
  <path
     d="M 31.435473,7.8763654 C 30.441249,2.6222821 25.185881,1.968898 25.185881,1.968898 H 1.6499019 c -0.77685834,0 -0.87332253,1.0263789 -0.87332253,1.0263789 0,0 -0.10546752,9.4200501 -0.0282962,15.2053301 0.21093506,3.117723 3.32608553,3.436698 3.32608553,3.436698 0,0 10.6329273,-0.02959 15.3905413,-0.06303 3.135729,-0.547918 3.450846,-3.300363 3.418691,-4.802631 5.597495,0.308685 9.546097,-3.641202 8.551872,-8.8952859 z M 17.207648,12.392177 c -1.602592,1.868832 -5.158905,5.113887 -5.158905,5.113887 0,0 -0.15563,0.153058 -0.398719,0.02959 -0.09775,-0.07331 -0.138909,-0.115757 -0.138909,-0.115757 C 10.941333,16.852681 7.1792297,13.498299 6.3226277,12.334297 5.4107194,11.093125 4.9837046,8.8615863 6.2055844,7.5625352 7.4287505,6.263484 10.070583,6.1657336 11.817228,8.0860142 c 0,0 2.012887,-2.2919892 4.460505,-1.2386003 2.448904,1.0546753 2.356299,3.8727161 0.929915,5.5447631 z m 7.939645,0.614798 c -1.193583,0.149198 -2.163369,0.03601 -2.163369,0.03601 V 5.7361464 h 2.276554 c 0,0 2.53508,0.7086903 2.53508,3.3929671 0,2.4604805 -1.266896,3.4302675 -2.648265,3.8778615 z"
     id="path1"
     style="fill:#e7ecfd;fill-opacity:1;stroke-width:1.28619" />
  <metadata
     id="metadata1">
    <rdf:RDF>
      <cc:Work
         rdf:about="">
        <dc:title>Ko-fi icon</dc:title>
      </cc:Work>
    </rdf:RDF>
  </metadata>
</svg>
