<?xml version="1.0" encoding="UTF-8" standalone="no"?>
<!-- Created with Inkscape (http://www.inkscape.org/) -->

<svg
   width="1200"
   height="630"
   viewBox="0 0 1200 630"
   version="1.1"
   id="svg1"
   xml:space="preserve"
   inkscape:version="1.4 (e7c3feb1, 2024-10-09)"
   sodipodi:docname="og_image.svg"
   inkscape:export-filename="og_image.jpg"
   inkscape:export-xdpi="96"
   inkscape:export-ydpi="96"
   xmlns:inkscape="http://www.inkscape.org/namespaces/inkscape"
   xmlns:sodipodi="http://sodipodi.sourceforge.net/DTD/sodipodi-0.dtd"
   xmlns="http://www.w3.org/2000/svg"
   xmlns:svg="http://www.w3.org/2000/svg"><sodipodi:namedview
     id="namedview1"
     pagecolor="#151823"
     bordercolor="#000000"
     borderopacity="0.25"
     inkscape:showpageshadow="2"
     inkscape:pageopacity="0.0"
     inkscape:pagecheckerboard="0"
     inkscape:deskcolor="#d1d1d1"
     inkscape:document-units="px"
     inkscape:zoom="0.7830622"
     inkscape:cx="608.5085"
     inkscape:cy="349.26983"
     inkscape:window-width="1456"
     inkscape:window-height="916"
     inkscape:window-x="62"
     inkscape:window-y="38"
     inkscape:window-maximized="1"
     inkscape:current-layer="layer1"
     inkscape:export-bgcolor="#151823ff" /><defs
     id="defs1" /><g
     inkscape:label="Layer 1"
     inkscape:groupmode="layer"
     id="layer1"><g
       style="fill:currentColor"
       id="g1"
       transform="matrix(8.8841654,0,0,8.8841654,352.21384,75.74862)"><path
         d="m 22,2 h -2 v 2 h 2 v 12 h -2 v 2 h 2 v -2 h 2 V 4 H 22 Z M 2,4 H 0 v 12 h 2 v 2 H 4 V 16 H 2 Z M 2,4 V 2 H 4 V 4 Z M 6,6 H 4 v 8 H 6 Z M 6,6 V 4 h 2 v 2 z m 4,0 h 4 v 2 h -4 z m 0,6 H 8 V 8 h 2 z m 4,0 h -4 v 2 H 8 v 4 H 6 v 4 h 2 v -4 h 2 v -4 h 4 v 4 h 2 v 4 h 2 v -4 h -2 v -4 h -2 z m 0,0 h 2 V 8 H 14 Z M 20,6 H 18 V 4 h -2 v 2 h 2 v 8 h 2 z"
         id="path1"
         style="fill:#e7ecfd;fill-opacity:1" /></g><g
       style="fill:none"
       id="g2"
       transform="matrix(9.8454621,0,0,9.8454621,604.22262,61.191989)"><path
         d="M 4,2 H 18 V 4 H 4 v 16 h 2 v -6 h 12 v 6 h 2 V 6 h 2 V 22 H 2 V 2 Z m 4,18 h 8 V 16 H 8 Z M 20,6 H 18 V 4 h 2 z M 6,6 h 9 v 4 H 6 Z"
         fill="currentColor"
         id="path1-7"
         style="fill:#e7ecfd;fill-opacity:1" /></g><text
       xml:space="preserve"
       style="font-size:13.2423px;text-align:start;writing-mode:lr-tb;direction:ltr;text-anchor:start;fill:#e7ecfd;stroke:#e7ecfd;stroke-width:1.10353;stroke-opacity:1"
       x="149.20338"
       y="502.77298"
       id="text2"><tspan
         sodipodi:role="line"
         id="tspan2"
         x="149.20338"
         y="502.77298"
         style="font-style:normal;font-variant:normal;font-weight:normal;font-stretch:normal;font-size:146.667px;font-family:Born2bSportyV2;-inkscape-font-specification:'Born2bSportyV2, Normal';font-variant-ligatures:normal;font-variant-caps:normal;font-variant-numeric:normal;font-variant-east-asian:normal;fill:#e7ecfd;fill-opacity:1;stroke:#e7ecfd;stroke-width:1.10353;stroke-opacity:1">Reilly Spitzfaden</tspan></text><path
       style="fill:#e7ecfd;fill-opacity:1;stroke:#e29cc3;stroke-width:10;stroke-dasharray:none;stroke-opacity:1"
       d="m 79.617551,346.5516 c 1038.893849,0 1038.893849,0 1038.893849,0"
       id="path2" /><text
       xml:space="preserve"
       style="font-style:normal;font-variant:normal;font-weight:normal;font-stretch:normal;font-size:146.667px;font-family:Born2bSportyV2;-inkscape-font-specification:'Born2bSportyV2, Normal';font-variant-ligatures:normal;font-variant-caps:normal;font-variant-numeric:normal;font-variant-east-asian:normal;text-align:start;writing-mode:lr-tb;direction:ltr;text-anchor:start;fill:#e7ecfd;fill-opacity:1;stroke:#e29cc3;stroke-width:10;stroke-dasharray:none;stroke-opacity:1"
       x="892.51532"
       y="761.95978"
       id="text3"><tspan
         sodipodi:role="line"
         id="tspan3"
         x="892.51532"
         y="761.95978" /></text></g></svg>
