<?xml version="1.0" encoding="UTF-8" standalone="no"?>
<svg
   fill="currentColor"
   viewBox="0 0 24 20"
   version="1.1"
   id="svg1"
   width="24"
   height="20"
   xmlns="http://www.w3.org/2000/svg"
   xmlns:svg="http://www.w3.org/2000/svg">
  <defs
     id="defs1" />
  <path
     d="m 22,0 h -2 v 2 h 2 v 12 h -2 v 2 h 2 v -2 h 2 V 2 H 22 Z M 2,2 H 0 v 12 h 2 v 2 H 4 V 14 H 2 Z M 2,2 V 0 H 4 V 2 Z M 6,4 H 4 v 8 H 6 Z M 6,4 V 2 h 2 v 2 z m 4,0 h 4 v 2 h -4 z m 0,6 H 8 V 6 h 2 z m 4,0 h -4 v 2 H 8 v 4 H 6 v 4 h 2 v -4 h 2 v -4 h 4 v 4 h 2 v 4 h 2 v -4 h -2 v -4 h -2 z m 0,0 h 2 V 6 H 14 Z M 20,4 H 18 V 2 h -2 v 2 h 2 v 8 h 2 z"
     id="path1"
     style="fill:#f0f8ff;fill-opacity:1" />
</svg>
