<?xml version="1.0" encoding="UTF-8" standalone="no"?>
<svg
   fill="currentColor"
   viewBox="0 0 24 24"
   version="1.1"
   id="svg1"
   sodipodi:docname="radio-tower-aliceblue-64px.svg"
   inkscape:version="1.4 (e7c3feb1, 2024-10-09)"
   xmlns:inkscape="http://www.inkscape.org/namespaces/inkscape"
   xmlns:sodipodi="http://sodipodi.sourceforge.net/DTD/sodipodi-0.dtd"
   xmlns="http://www.w3.org/2000/svg"
   xmlns:svg="http://www.w3.org/2000/svg">
  <defs
     id="defs1" />
  <sodipodi:namedview
     id="namedview1"
     pagecolor="#ffffff"
     bordercolor="#000000"
     borderopacity="0.25"
     inkscape:showpageshadow="2"
     inkscape:pageopacity="0.0"
     inkscape:pagecheckerboard="0"
     inkscape:deskcolor="#d1d1d1"
     inkscape:zoom="8.955761"
     inkscape:cx="9.7144173"
     inkscape:cy="14.906606"
     inkscape:window-width="1208"
     inkscape:window-height="916"
     inkscape:window-x="62"
     inkscape:window-y="38"
     inkscape:window-maximized="0"
     inkscape:current-layer="svg1" />
  <path
     d="M22 2h-2v2h2v12h-2v2h2v-2h2V4h-2V2ZM2 4H0v12h2v2h2v-2H2V4Zm0 0V2h2v2H2Zm4 2H4v8h2V6Zm0 0V4h2v2H6Zm4 0h4v2h-4V6Zm0 6H8V8h2v4Zm4 0h-4v2H8v4H6v4h2v-4h2v-4h4v4h2v4h2v-4h-2v-4h-2v-2Zm0 0h2V8h-2v4Zm6-6h-2V4h-2v2h2v8h2V6Z"
     id="path1"
     style="fill:#e7ecfd;fill-opacity:1" />
</svg>
