<?xml version="1.0" encoding="UTF-8" standalone="no"?>
<svg
   viewBox="0 0 512 512"
   version="1.1"
   id="svg1"
   width="512"
   height="512"
   xmlns="http://www.w3.org/2000/svg"
   xmlns:svg="http://www.w3.org/2000/svg">
  <defs
     id="defs1" />
  <path
     fill="#000"
     d="m 27.906,27.28 v 91.44 a 365.765,365.765 0 0 1 365.75,365.78 h 91.438 A 457.207,457.207 0 0 0 27.906,27.28 Z m 0,154.157 v 88.813 a 214.234,214.234 0 0 1 214.22,214.25 h 88.843 A 303.063,303.063 0 0 0 27.905,181.437 Z M 88.75,359.125 a 62.703,62.703 0 0 0 -60.844,62.656 62.703,62.703 0 0 0 125.375,0 62.703,62.703 0 0 0 -64.53,-62.655 z"
     id="path1"
     style="fill:#e7ecfd;fill-opacity:1" />
</svg>
