<?xml version="1.0" encoding="UTF-8" standalone="no"?>
<svg
   width="20"
   height="20"
   viewBox="0 0 18 18"
   fill="none"
   version="1.1"
   id="svg1"
   sodipodi:docname="share-openly.svg"
   inkscape:version="1.4 (e7c3feb1, 2024-10-09)"
   xmlns:inkscape="http://www.inkscape.org/namespaces/inkscape"
   xmlns:sodipodi="http://sodipodi.sourceforge.net/DTD/sodipodi-0.dtd"
   xmlns="http://www.w3.org/2000/svg"
   xmlns:svg="http://www.w3.org/2000/svg">
  <defs
     id="defs1" />
  <sodipodi:namedview
     id="namedview1"
     pagecolor="#ffffff"
     bordercolor="#000000"
     borderopacity="0.25"
     inkscape:showpageshadow="2"
     inkscape:pageopacity="0.0"
     inkscape:pagecheckerboard="0"
     inkscape:deskcolor="#d1d1d1"
     inkscape:zoom="1.3"
     inkscape:cx="10"
     inkscape:cy="9.6153846"
     inkscape:window-width="1112"
     inkscape:window-height="588"
     inkscape:window-x="62"
     inkscape:window-y="38"
     inkscape:window-maximized="0"
     inkscape:current-layer="svg1" />
  <path
     fill-rule="evenodd"
     clip-rule="evenodd"
     d="M13.5706 1.07915L12.9519 0.460419L12.3332 1.07914L8.6363 4.77601L9.87373 6.01345L12.0754 3.8118C12.0758 4.19678 12.0764 4.58119 12.077 4.96525V4.9653V4.96533C12.0799 6.74156 12.0828 8.51005 12.063 10.291C11.9514 12.51 10.2821 14.5766 8.13549 15.0249L8.12156 15.0278L8.10773 15.0311C6.21947 15.49 4.06987 14.5395 3.24835 12.8164L3.24176 12.8025L3.23468 12.7889C2.46106 11.3026 2.86462 9.29521 4.17623 8.31823L4.18926 8.30852L4.20193 8.29834C5.33152 7.3898 7.12207 7.44889 8.09598 8.45611L8.10921 8.46979L8.12302 8.48289C8.65152 8.9839 8.85928 9.70255 8.85928 10.7436V10.8568H10.6093V10.7436C10.6093 9.51128 10.3691 8.21034 9.34085 7.22607C7.68339 5.5272 4.88287 5.51577 3.11789 6.92446C1.07968 8.45342 0.548175 11.4013 1.67527 13.5832C2.88159 16.0953 5.88263 17.3657 8.50709 16.735C11.4878 16.1053 13.6724 13.3174 13.8118 10.3583L13.8126 10.3426L13.8127 10.3269C13.8328 8.53249 13.8299 6.73532 13.827 4.94338V4.9431V4.94298C13.8264 4.56468 13.8258 4.18661 13.8254 3.80885L16.03 6.01344L17.2674 4.77602L13.5706 1.07915Z"
     fill="#d2dde6"
     id="path1"
     style="fill:#e7ecfd;fill-opacity:1" />
</svg>
