<?xml version="1.0" encoding="UTF-8" standalone="no"?>
<svg
   viewBox="0 -13 75 60.000003"
   version="1.1"
   id="svg8"
   sodipodi:docname="54546-1717072325-sc-logo-cloud-black-7412d7.svg"
   width="75"
   height="60"
   inkscape:version="1.4 (e7c3feb1, 2024-10-09)"
   xmlns:inkscape="http://www.inkscape.org/namespaces/inkscape"
   xmlns:sodipodi="http://sodipodi.sourceforge.net/DTD/sodipodi-0.dtd"
   xmlns="http://www.w3.org/2000/svg"
   xmlns:svg="http://www.w3.org/2000/svg">
  <defs
     id="defs8" />
  <sodipodi:namedview
     id="namedview8"
     pagecolor="#ffffff"
     bordercolor="#000000"
     borderopacity="0.25"
     inkscape:showpageshadow="2"
     inkscape:pageopacity="0.0"
     inkscape:pagecheckerboard="0"
     inkscape:deskcolor="#d1d1d1"
     inkscape:zoom="4.0119926"
     inkscape:cx="16.824558"
     inkscape:cy="30.907335"
     inkscape:window-width="1104"
     inkscape:window-height="775"
     inkscape:window-x="60"
     inkscape:window-y="38"
     inkscape:window-maximized="0"
     inkscape:current-layer="svg8">
    <inkscape:page
       x="0"
       y="0"
       width="75"
       height="60.000004"
       id="page2"
       margin="0"
       bleed="0" />
  </sodipodi:namedview>
  <g
     id="Layer_2"
     data-name="Layer 2"
     style="fill:#e7ecfd;fill-opacity:1">
    <g
       id="Orange"
       style="fill:#e7ecfd;fill-opacity:1">
      <path
         d="M 75,23.6 A 10.5,10.5 0 0 1 64.37,33.51 H 38.82 A 2.14,2.14 0 0 1 36.7,31.38 V 3.87 a 2.34,2.34 0 0 1 1.41,-2.24 c 0,0 2.35,-1.63 7.3,-1.63 A 16.74,16.74 0 0 1 54,2.36 17,17 0 0 1 62,13.44 9.8,9.8 0 0 1 64.71,13.07 10.23,10.23 0 0 1 75,23.6 Z"
         id="path1"
         style="fill:#e7ecfd;fill-opacity:1" />
      <path
         d="m 33.51,5.61 a 0.83,0.83 0 1 0 -1.65,0 c -0.7,9.25 -1.24,17.92 0,27.14 a 0.83,0.83 0 0 0 1.65,0 c 1.33,-9.3 0.77,-17.81 0,-27.14 z"
         id="path2"
         style="fill:#e7ecfd;fill-opacity:1" />
      <path
         d="m 28.35,8.81 a 0.87,0.87 0 0 0 -1.73,0 103.7,103.7 0 0 0 0,23.95 0.87,0.87 0 0 0 1.72,0 93.2,93.2 0 0 0 0.01,-23.95 z"
         id="path3"
         style="fill:#e7ecfd;fill-opacity:1" />
      <path
         d="m 23.16,8 a 0.84,0.84 0 0 0 -1.67,0 c -0.79,8.44 -1.19,16.32 0,24.74 a 0.83,0.83 0 0 0 1.66,0 C 24.38,24.21 24,16.55 23.16,8 Z"
         id="path4"
         style="fill:#e7ecfd;fill-opacity:1" />
      <path
         d="m 18,10.41 a 0.86,0.86 0 0 0 -1.72,0 87.61,87.61 0 0 0 0,22.36 0.85,0.85 0 0 0 1.69,0 A 81.68,81.68 0 0 0 18,10.41 Z"
         id="path5"
         style="fill:#e7ecfd;fill-opacity:1" />
      <path
         d="m 12.79,16 a 0.85,0.85 0 0 0 -1.7,0 c -1.23,5.76 -0.65,11 0.05,16.83 a 0.81,0.81 0 0 0 1.6,0 C 13.51,26.92 14.1,21.8 12.79,16 Z"
         id="path6"
         style="fill:#e7ecfd;fill-opacity:1" />
      <path
         d="m 7.62,15.12 a 0.88,0.88 0 0 0 -1.75,0 C 4.78,21 5.14,26.18 5.9,32.05 c 0.08,0.89 1.59,0.88 1.69,0 0.84,-5.96 1.23,-10.99 0.03,-16.93 z"
         id="path7"
         style="fill:#e7ecfd;fill-opacity:1" />
      <path
         d="m 2.4,18 a 0.88,0.88 0 0 0 -1.75,0 c -1,3.95 -0.69,7.22 0.07,11.18 a 0.82,0.82 0 0 0 1.63,0 C 3.23,25.14 3.66,21.94 2.4,18 Z"
         id="path8"
         style="fill:#e7ecfd;fill-opacity:1" />
    </g>
  </g>
</svg>
